<svg width="138" height="167" viewBox="0 0 138 167" fill="none" xmlns="http://www.w3.org/2000/svg">
<path d="M68.7632 60.9337C74.5689 60.9337 79.28 56.2365 79.28 50.4169C79.28 44.6112 74.5689 39.914 68.7632 39.914C62.9575 39.914 58.2466 44.6112 58.2466 50.4169C58.2464 56.2365 62.9575 60.9337 68.7632 60.9337Z" fill="url(#paint0_linear_3_4927)"/>
<path d="M98.3303 78.4545C101.422 78.4545 104.155 76.8658 105.744 74.4615C106.674 73.0589 107.218 71.37 107.218 69.5524C107.218 64.6435 103.239 60.6505 98.3303 60.6505C97.586 60.6505 96.8561 60.7507 96.1549 60.9367C92.2907 61.8957 89.4282 65.3877 89.4282 69.5524C89.4282 74.476 93.4071 78.4545 98.3303 78.4545Z" fill="url(#paint1_linear_3_4927)"/>
<path d="M39.1954 78.4545C44.1186 78.4545 48.0973 74.4758 48.0973 69.5526C48.0973 65.3879 45.235 61.896 41.3708 60.937C40.6696 60.7509 39.9396 60.6507 39.1954 60.6507C34.2866 60.6507 30.3079 64.6438 30.3079 69.5526C30.3079 71.3703 30.8516 73.0591 31.782 74.4617C33.3707 76.8661 36.1044 78.4545 39.1954 78.4545Z" fill="url(#paint2_linear_3_4927)"/>
<path d="M68.7473 0.779114C30.7856 0.779114 0 31.5647 0 69.5266C0 82.4578 3.57075 94.5224 9.75922 104.854C11.9953 108.702 15.3061 113.382 19.709 118.738C20.8356 120.09 22.0144 121.494 23.2797 122.933V102.982L23.3143 99.2893C23.3143 98.6652 23.3143 98.024 23.3316 97.4172L23.0196 96.8971C18.062 88.6633 15.4445 79.1989 15.4445 69.5266C15.4445 40.1451 39.3656 16.224 68.747 16.224C98.1458 16.224 122.067 40.1451 122.067 69.5266C122.067 79.1989 119.449 88.6635 114.492 96.9146L114.18 97.4347C114.197 98.0413 114.197 98.6829 114.197 99.3414L114.232 102.93V122.933C120.455 115.792 124.944 109.69 127.752 104.854C130.855 99.6883 133.282 94.0893 134.946 88.161C136.61 82.25 137.511 75.9923 137.511 69.5268C137.512 31.5647 106.727 0.779114 68.7473 0.779114Z" fill="url(#paint3_linear_3_4927)"/>
<path d="M109.829 96.2384C109.812 94.2623 109.795 92.8063 109.795 92.6328C109.413 86.7566 106.137 82.7696 101.457 81.8337C101.353 81.8164 101.249 81.7991 101.128 81.7818C100.972 81.7472 100.833 81.6777 100.677 81.6431C99.9142 81.487 99.1169 81.4178 98.302 81.4178C97.4701 81.4178 96.6726 81.487 95.9098 81.6431C95.7539 81.6777 95.5978 81.7299 95.4592 81.7645C90.6056 82.9257 87.2081 87.2246 86.792 93.4477C86.7747 93.6557 86.7747 95.2503 86.7574 97.3999V124.996C86.7574 126.66 85.4054 128.029 83.7239 128.029C82.0598 128.029 80.7078 126.66 80.7078 124.996V95.0596C80.673 92.4769 80.6557 83.307 80.6384 81.0882C80.6038 78.8695 80.6038 77.24 80.6038 77.0147C80.1183 69.873 75.8194 65.1929 69.8565 64.6726C69.4923 64.638 69.1284 64.6207 68.7471 64.6207C68.3832 64.6207 68.0192 64.638 67.6551 64.6726C61.6921 65.1927 57.3933 69.8728 56.9078 77.0147C56.9078 77.24 56.9078 78.8693 56.8732 81.0882C56.8559 83.307 56.8386 92.4767 56.8038 95.0596V124.996C56.8038 126.66 55.4518 128.029 53.7877 128.029C52.1064 128.029 50.7544 126.66 50.7544 124.996V97.3997C50.7371 95.2503 50.7371 93.6555 50.7198 93.4474C50.3037 87.2244 46.9062 82.9255 42.0526 81.7642C41.914 81.7296 41.7579 81.6775 41.602 81.6429C40.8392 81.4868 40.0419 81.4176 39.2098 81.4176C38.3949 81.4176 37.5976 81.4868 36.8349 81.6429C36.6788 81.6775 36.5401 81.7469 36.3842 81.7815C36.2629 81.7988 36.1589 81.8161 36.0549 81.8334C31.3746 82.7694 28.0985 86.7564 27.7171 92.6326C27.7171 92.806 27.6998 94.2621 27.6825 96.2382C27.6652 97.1741 27.6479 98.2316 27.6479 99.341C27.6306 100.537 27.6306 101.785 27.6133 102.981V127.769C30.2308 130.629 33.1255 133.645 36.2629 136.783C45.8833 146.42 57.272 156.942 68.7471 166.996C80.2396 156.942 91.6283 146.42 101.249 136.783C104.386 133.645 107.264 130.629 109.898 127.769V102.981C109.881 101.785 109.881 100.537 109.864 99.3412C109.864 98.2318 109.847 97.1743 109.829 96.2384Z" fill="url(#paint4_linear_3_4927)"/>
<defs>
<linearGradient id="paint0_linear_3_4927" x1="58.2466" y1="39.914" x2="78.0129" y2="62.0646" gradientUnits="userSpaceOnUse">
<stop stop-color="#006FEE"/>
<stop offset="1" stop-color="#00E0EE"/>
</linearGradient>
<linearGradient id="paint1_linear_3_4927" x1="89.4282" y1="60.6505" x2="106.173" y2="79.3881" gradientUnits="userSpaceOnUse">
<stop stop-color="#006FEE"/>
<stop offset="1" stop-color="#00E0EE"/>
</linearGradient>
<linearGradient id="paint2_linear_3_4927" x1="30.3079" y1="60.6507" x2="47.0527" y2="79.3881" gradientUnits="userSpaceOnUse">
<stop stop-color="#006FEE"/>
<stop offset="1" stop-color="#00E0EE"/>
</linearGradient>
<linearGradient id="paint3_linear_3_4927" x1="0" y1="0.779114" x2="112.582" y2="142.709" gradientUnits="userSpaceOnUse">
<stop stop-color="#006FEE"/>
<stop offset="1" stop-color="#00E0EE"/>
</linearGradient>
<linearGradient id="paint4_linear_3_4927" x1="27.6133" y1="64.6207" x2="123.975" y2="151.358" gradientUnits="userSpaceOnUse">
<stop stop-color="#006FEE"/>
<stop offset="1" stop-color="#00E0EE"/>
</linearGradient>
</defs>
</svg>
